<mxfile host="Electron" modified="2023-06-04T15:14:47.700Z" agent="Mozilla/5.0 (Macintosh; Intel Mac OS X 10_15_7) AppleWebKit/537.36 (KHTML, like Gecko) draw.io/21.2.1 Chrome/112.0.5615.87 Electron/24.1.2 Safari/537.36" etag="fpnAXlfl6UIiVjuNiX4p" version="21.2.1" type="device">
  <diagram id="R2lEEEUBdFMjLlhIrx00" name="Page-1">
    <mxGraphModel dx="1950" dy="-375" grid="1" gridSize="10" guides="1" tooltips="1" connect="1" arrows="1" fold="1" page="1" pageScale="1" pageWidth="850" pageHeight="1100" math="0" shadow="0" extFonts="Permanent Marker^https://fonts.googleapis.com/css?family=Permanent+Marker">
      <root>
        <mxCell id="0" />
        <mxCell id="1" parent="0" />
        <mxCell id="qnkbcpYswVgYUXXukxZf-1" style="edgeStyle=none;rounded=0;orthogonalLoop=1;jettySize=auto;html=1;exitX=0.75;exitY=0;exitDx=0;exitDy=0;startArrow=none;" parent="1" source="qnkbcpYswVgYUXXukxZf-7" edge="1">
          <mxGeometry relative="1" as="geometry">
            <mxPoint x="-303.5" y="1154" as="targetPoint" />
          </mxGeometry>
        </mxCell>
        <mxCell id="qnkbcpYswVgYUXXukxZf-2" style="edgeStyle=none;rounded=0;orthogonalLoop=1;jettySize=auto;html=1;exitX=0.25;exitY=0;exitDx=0;exitDy=0;" parent="1" source="qnkbcpYswVgYUXXukxZf-3" edge="1">
          <mxGeometry relative="1" as="geometry">
            <mxPoint x="-363.5" y="1154" as="targetPoint" />
          </mxGeometry>
        </mxCell>
        <mxCell id="qnkbcpYswVgYUXXukxZf-3" value="EDITOR" style="whiteSpace=wrap;html=1;align=center;shadow=0;sketch=0;fillStyle=solid;strokeColor=#330000;strokeWidth=1;fillColor=#FFFFFF;" parent="1" vertex="1">
          <mxGeometry x="-383.5" y="1214" width="100" height="40" as="geometry" />
        </mxCell>
        <mxCell id="qnkbcpYswVgYUXXukxZf-4" value="WRITER" style="whiteSpace=wrap;html=1;align=center;shadow=0;sketch=0;fillStyle=solid;strokeColor=#330000;strokeWidth=1;fillColor=#FFFFFF;" parent="1" vertex="1">
          <mxGeometry x="-1" y="1214" width="100" height="40" as="geometry" />
        </mxCell>
        <mxCell id="qnkbcpYswVgYUXXukxZf-5" value="name" style="text;html=1;align=center;verticalAlign=middle;resizable=0;points=[];autosize=1;strokeColor=none;fillColor=none;" parent="1" vertex="1">
          <mxGeometry x="-413.5" y="1120" width="50" height="30" as="geometry" />
        </mxCell>
        <mxCell id="qnkbcpYswVgYUXXukxZf-6" value="" style="edgeStyle=none;rounded=0;orthogonalLoop=1;jettySize=auto;html=1;exitX=0.75;exitY=0;exitDx=0;exitDy=0;endArrow=none;" parent="1" source="qnkbcpYswVgYUXXukxZf-3" target="qnkbcpYswVgYUXXukxZf-7" edge="1">
          <mxGeometry relative="1" as="geometry">
            <mxPoint x="-303.5" y="1154" as="targetPoint" />
            <mxPoint x="-308.5" y="1214" as="sourcePoint" />
          </mxGeometry>
        </mxCell>
        <mxCell id="qnkbcpYswVgYUXXukxZf-7" value="" style="ellipse;whiteSpace=wrap;html=1;fillColor=#FFFFFF;strokeColor=#330000;shadow=0;sketch=0;fillStyle=solid;strokeWidth=1;" parent="1" vertex="1">
          <mxGeometry x="-313.5" y="1144" width="20" height="20" as="geometry" />
        </mxCell>
        <mxCell id="qnkbcpYswVgYUXXukxZf-8" value="" style="ellipse;whiteSpace=wrap;html=1;fillColor=#000000;strokeColor=#330000;shadow=0;sketch=0;fillStyle=solid;strokeWidth=1;" parent="1" vertex="1">
          <mxGeometry x="-373.5" y="1144" width="20" height="20" as="geometry" />
        </mxCell>
        <mxCell id="qnkbcpYswVgYUXXukxZf-9" value="city" style="text;html=1;align=center;verticalAlign=middle;resizable=0;points=[];autosize=1;strokeColor=none;fillColor=none;" parent="1" vertex="1">
          <mxGeometry x="-298.5" y="1120" width="40" height="30" as="geometry" />
        </mxCell>
        <mxCell id="qnkbcpYswVgYUXXukxZf-10" style="edgeStyle=none;rounded=0;orthogonalLoop=1;jettySize=auto;html=1;exitX=0.75;exitY=0;exitDx=0;exitDy=0;startArrow=none;" parent="1" source="qnkbcpYswVgYUXXukxZf-14" edge="1">
          <mxGeometry relative="1" as="geometry">
            <mxPoint x="84" y="1154" as="targetPoint" />
          </mxGeometry>
        </mxCell>
        <mxCell id="qnkbcpYswVgYUXXukxZf-11" style="edgeStyle=none;rounded=0;orthogonalLoop=1;jettySize=auto;html=1;exitX=0.25;exitY=0;exitDx=0;exitDy=0;" parent="1" edge="1">
          <mxGeometry relative="1" as="geometry">
            <mxPoint x="24" y="1154" as="targetPoint" />
            <mxPoint x="29" y="1214" as="sourcePoint" />
          </mxGeometry>
        </mxCell>
        <mxCell id="qnkbcpYswVgYUXXukxZf-12" value="firstName" style="text;html=1;align=center;verticalAlign=middle;resizable=0;points=[];autosize=1;strokeColor=none;fillColor=none;" parent="1" vertex="1">
          <mxGeometry x="-36" y="1120" width="70" height="30" as="geometry" />
        </mxCell>
        <mxCell id="qnkbcpYswVgYUXXukxZf-13" value="" style="edgeStyle=none;rounded=0;orthogonalLoop=1;jettySize=auto;html=1;exitX=0.75;exitY=0;exitDx=0;exitDy=0;endArrow=none;" parent="1" target="qnkbcpYswVgYUXXukxZf-14" edge="1">
          <mxGeometry relative="1" as="geometry">
            <mxPoint x="84" y="1154" as="targetPoint" />
            <mxPoint x="79" y="1214" as="sourcePoint" />
          </mxGeometry>
        </mxCell>
        <mxCell id="qnkbcpYswVgYUXXukxZf-14" value="" style="ellipse;whiteSpace=wrap;html=1;fillColor=#FFFFFF;strokeColor=#330000;shadow=0;sketch=0;fillStyle=solid;strokeWidth=1;" parent="1" vertex="1">
          <mxGeometry x="74" y="1144" width="20" height="20" as="geometry" />
        </mxCell>
        <mxCell id="qnkbcpYswVgYUXXukxZf-15" value="" style="ellipse;whiteSpace=wrap;html=1;fillColor=#FFFFFF;strokeColor=#330000;shadow=0;sketch=0;fillStyle=solid;strokeWidth=1;" parent="1" vertex="1">
          <mxGeometry x="14" y="1144" width="20" height="20" as="geometry" />
        </mxCell>
        <mxCell id="qnkbcpYswVgYUXXukxZf-20" value="lastName" style="text;html=1;align=center;verticalAlign=middle;resizable=0;points=[];autosize=1;strokeColor=none;fillColor=none;" parent="1" vertex="1">
          <mxGeometry x="84" y="1122" width="70" height="30" as="geometry" />
        </mxCell>
        <mxCell id="qnkbcpYswVgYUXXukxZf-21" value="PUBLISHING" style="shape=rhombus;perimeter=rhombusPerimeter;whiteSpace=wrap;html=1;align=center;shadow=0;sketch=0;fillStyle=solid;strokeColor=#330000;strokeWidth=1;fillColor=#FFFFFF;" parent="1" vertex="1">
          <mxGeometry x="-388.5" y="1330" width="120" height="60" as="geometry" />
        </mxCell>
        <mxCell id="qnkbcpYswVgYUXXukxZf-22" value="" style="endArrow=none;html=1;rounded=0;" parent="1" target="qnkbcpYswVgYUXXukxZf-21" edge="1">
          <mxGeometry relative="1" as="geometry">
            <mxPoint x="-328.5" y="1254" as="sourcePoint" />
            <mxPoint x="-253.5" y="1254" as="targetPoint" />
          </mxGeometry>
        </mxCell>
        <mxCell id="qnkbcpYswVgYUXXukxZf-23" value="(1, N)" style="resizable=0;html=1;align=left;verticalAlign=bottom;shadow=0;sketch=0;fillStyle=solid;strokeColor=#330000;strokeWidth=1;fillColor=#FFFFFF;" parent="qnkbcpYswVgYUXXukxZf-22" connectable="0" vertex="1">
          <mxGeometry x="-1" relative="1" as="geometry">
            <mxPoint x="1" y="19" as="offset" />
          </mxGeometry>
        </mxCell>
        <mxCell id="qnkbcpYswVgYUXXukxZf-24" value="COMIC BOOK" style="whiteSpace=wrap;html=1;align=center;shadow=0;sketch=0;fillStyle=solid;strokeColor=#330000;strokeWidth=1;fillColor=#FFFFFF;" parent="1" vertex="1">
          <mxGeometry x="-184" y="1340" width="100" height="40" as="geometry" />
        </mxCell>
        <mxCell id="qnkbcpYswVgYUXXukxZf-25" value="" style="endArrow=none;html=1;rounded=0;" parent="1" edge="1">
          <mxGeometry relative="1" as="geometry">
            <mxPoint x="-269.5" y="1360" as="sourcePoint" />
            <mxPoint x="-184" y="1360" as="targetPoint" />
          </mxGeometry>
        </mxCell>
        <mxCell id="qnkbcpYswVgYUXXukxZf-26" value="(1, 1)" style="resizable=0;html=1;align=left;verticalAlign=bottom;shadow=0;sketch=0;fillStyle=solid;strokeColor=#330000;strokeWidth=1;fillColor=#FFFFFF;" parent="qnkbcpYswVgYUXXukxZf-25" connectable="0" vertex="1">
          <mxGeometry x="-1" relative="1" as="geometry">
            <mxPoint x="49" as="offset" />
          </mxGeometry>
        </mxCell>
        <mxCell id="qnkbcpYswVgYUXXukxZf-27" value="ARTIST" style="whiteSpace=wrap;html=1;align=center;shadow=0;sketch=0;fillStyle=solid;strokeColor=#330000;strokeWidth=1;fillColor=#FFFFFF;" parent="1" vertex="1">
          <mxGeometry x="198.25" y="1340" width="100" height="40" as="geometry" />
        </mxCell>
        <mxCell id="qnkbcpYswVgYUXXukxZf-28" value="AUTHORING" style="shape=rhombus;perimeter=rhombusPerimeter;whiteSpace=wrap;html=1;align=center;shadow=0;sketch=0;fillStyle=solid;strokeColor=#330000;strokeWidth=1;fillColor=#FFFFFF;" parent="1" vertex="1">
          <mxGeometry x="-6.75" y="1330" width="120" height="60" as="geometry" />
        </mxCell>
        <mxCell id="qnkbcpYswVgYUXXukxZf-29" value="" style="endArrow=none;html=1;rounded=0;" parent="1" edge="1">
          <mxGeometry relative="1" as="geometry">
            <mxPoint x="-84.25" y="1360" as="sourcePoint" />
            <mxPoint x="-4.25" y="1360" as="targetPoint" />
          </mxGeometry>
        </mxCell>
        <mxCell id="qnkbcpYswVgYUXXukxZf-30" value="(1, N)" style="resizable=0;html=1;align=left;verticalAlign=bottom;shadow=0;sketch=0;fillStyle=solid;strokeColor=#330000;strokeWidth=1;fillColor=#FFFFFF;" parent="qnkbcpYswVgYUXXukxZf-29" connectable="0" vertex="1">
          <mxGeometry x="-1" relative="1" as="geometry">
            <mxPoint x="5" as="offset" />
          </mxGeometry>
        </mxCell>
        <mxCell id="qnkbcpYswVgYUXXukxZf-31" value="" style="endArrow=none;html=1;rounded=0;" parent="1" edge="1">
          <mxGeometry relative="1" as="geometry">
            <mxPoint x="112.75" y="1360" as="sourcePoint" />
            <mxPoint x="198.25" y="1360" as="targetPoint" />
          </mxGeometry>
        </mxCell>
        <mxCell id="qnkbcpYswVgYUXXukxZf-32" value="(1, N)" style="resizable=0;html=1;align=left;verticalAlign=bottom;shadow=0;sketch=0;fillStyle=solid;strokeColor=#330000;strokeWidth=1;fillColor=#FFFFFF;" parent="qnkbcpYswVgYUXXukxZf-31" connectable="0" vertex="1">
          <mxGeometry x="-1" relative="1" as="geometry">
            <mxPoint x="47" as="offset" />
          </mxGeometry>
        </mxCell>
        <mxCell id="qnkbcpYswVgYUXXukxZf-33" style="edgeStyle=none;rounded=0;orthogonalLoop=1;jettySize=auto;html=1;exitX=0.75;exitY=0;exitDx=0;exitDy=0;startArrow=none;" parent="1" source="qnkbcpYswVgYUXXukxZf-37" edge="1">
          <mxGeometry relative="1" as="geometry">
            <mxPoint x="283.25" y="1280" as="targetPoint" />
          </mxGeometry>
        </mxCell>
        <mxCell id="qnkbcpYswVgYUXXukxZf-34" style="edgeStyle=none;rounded=0;orthogonalLoop=1;jettySize=auto;html=1;exitX=0.25;exitY=0;exitDx=0;exitDy=0;" parent="1" edge="1">
          <mxGeometry relative="1" as="geometry">
            <mxPoint x="223.25" y="1280" as="targetPoint" />
            <mxPoint x="228.25" y="1340" as="sourcePoint" />
          </mxGeometry>
        </mxCell>
        <mxCell id="qnkbcpYswVgYUXXukxZf-35" value="ID" style="text;html=1;align=center;verticalAlign=middle;resizable=0;points=[];autosize=1;strokeColor=none;fillColor=none;" parent="1" vertex="1">
          <mxGeometry x="181.25" y="1246" width="40" height="30" as="geometry" />
        </mxCell>
        <mxCell id="qnkbcpYswVgYUXXukxZf-36" value="" style="edgeStyle=none;rounded=0;orthogonalLoop=1;jettySize=auto;html=1;exitX=0.75;exitY=0;exitDx=0;exitDy=0;endArrow=none;" parent="1" target="qnkbcpYswVgYUXXukxZf-37" edge="1">
          <mxGeometry relative="1" as="geometry">
            <mxPoint x="283.25" y="1280" as="targetPoint" />
            <mxPoint x="278.25" y="1340" as="sourcePoint" />
          </mxGeometry>
        </mxCell>
        <mxCell id="qnkbcpYswVgYUXXukxZf-37" value="" style="ellipse;whiteSpace=wrap;html=1;fillColor=#FFFFFF;strokeColor=#330000;shadow=0;sketch=0;fillStyle=solid;strokeWidth=1;" parent="1" vertex="1">
          <mxGeometry x="273.25" y="1270" width="20" height="20" as="geometry" />
        </mxCell>
        <mxCell id="qnkbcpYswVgYUXXukxZf-38" value="" style="ellipse;whiteSpace=wrap;html=1;fillColor=#000000;strokeColor=#330000;shadow=0;sketch=0;fillStyle=solid;strokeWidth=1;" parent="1" vertex="1">
          <mxGeometry x="213.25" y="1270" width="20" height="20" as="geometry" />
        </mxCell>
        <mxCell id="qnkbcpYswVgYUXXukxZf-43" value="firstName" style="text;html=1;align=center;verticalAlign=middle;resizable=0;points=[];autosize=1;strokeColor=none;fillColor=none;" parent="1" vertex="1">
          <mxGeometry x="286.25" y="1248" width="70" height="30" as="geometry" />
        </mxCell>
        <mxCell id="qnkbcpYswVgYUXXukxZf-44" value="" style="endArrow=none;html=1;rounded=0;" parent="1" edge="1">
          <mxGeometry width="50" height="50" relative="1" as="geometry">
            <mxPoint x="261.75" y="1381" as="sourcePoint" />
            <mxPoint x="285.75" y="1430" as="targetPoint" />
          </mxGeometry>
        </mxCell>
        <mxCell id="qnkbcpYswVgYUXXukxZf-45" value="" style="ellipse;whiteSpace=wrap;html=1;aspect=fixed;shadow=0;sketch=0;fillStyle=solid;strokeColor=#330000;strokeWidth=1;fillColor=#FFFFFF;" parent="1" vertex="1">
          <mxGeometry x="277.25" y="1430" width="20" height="20" as="geometry" />
        </mxCell>
        <mxCell id="qnkbcpYswVgYUXXukxZf-46" value="" style="endArrow=none;html=1;rounded=0;" parent="1" edge="1">
          <mxGeometry relative="1" as="geometry">
            <mxPoint x="52.659999999999854" y="1254" as="sourcePoint" />
            <mxPoint x="52.659999999999854" y="1330" as="targetPoint" />
          </mxGeometry>
        </mxCell>
        <mxCell id="qnkbcpYswVgYUXXukxZf-47" value="(1, N)" style="resizable=0;html=1;align=left;verticalAlign=bottom;shadow=0;sketch=0;fillStyle=solid;strokeColor=#330000;strokeWidth=1;fillColor=#FFFFFF;" parent="qnkbcpYswVgYUXXukxZf-46" connectable="0" vertex="1">
          <mxGeometry x="-1" relative="1" as="geometry">
            <mxPoint x="1" y="19" as="offset" />
          </mxGeometry>
        </mxCell>
        <mxCell id="qnkbcpYswVgYUXXukxZf-48" value="pseudonym" style="text;html=1;align=center;verticalAlign=middle;resizable=0;points=[];autosize=1;strokeColor=none;fillColor=none;" parent="1" vertex="1">
          <mxGeometry x="284.25" y="1433" width="90" height="30" as="geometry" />
        </mxCell>
        <mxCell id="qnkbcpYswVgYUXXukxZf-49" value="" style="endArrow=none;html=1;rounded=0;" parent="1" edge="1">
          <mxGeometry width="50" height="50" relative="1" as="geometry">
            <mxPoint x="100" y="1235" as="sourcePoint" />
            <mxPoint x="150" y="1220" as="targetPoint" />
          </mxGeometry>
        </mxCell>
        <mxCell id="qnkbcpYswVgYUXXukxZf-50" value="" style="ellipse;whiteSpace=wrap;html=1;aspect=fixed;shadow=0;sketch=0;fillStyle=solid;strokeColor=#330000;strokeWidth=1;fillColor=#FFFFFF;flipV=1;" parent="1" vertex="1">
          <mxGeometry x="148.25" y="1207" width="20" height="20" as="geometry" />
        </mxCell>
        <mxCell id="qnkbcpYswVgYUXXukxZf-51" value="pseudonym" style="text;html=1;align=center;verticalAlign=middle;resizable=0;points=[];autosize=1;strokeColor=none;fillColor=none;flipV=1;" parent="1" vertex="1">
          <mxGeometry x="141.25" y="1184" width="90" height="30" as="geometry" />
        </mxCell>
        <mxCell id="qnkbcpYswVgYUXXukxZf-52" value="" style="endArrow=none;html=1;rounded=0;" parent="1" edge="1">
          <mxGeometry relative="1" as="geometry">
            <mxPoint x="-134.59000000000015" y="1462" as="sourcePoint" />
            <mxPoint x="-134.59000000000015" y="1380" as="targetPoint" />
          </mxGeometry>
        </mxCell>
        <mxCell id="qnkbcpYswVgYUXXukxZf-53" value="(1, N)" style="resizable=0;html=1;align=left;verticalAlign=bottom;shadow=0;sketch=0;fillStyle=solid;strokeColor=#330000;strokeWidth=1;fillColor=#FFFFFF;" parent="qnkbcpYswVgYUXXukxZf-52" connectable="0" vertex="1">
          <mxGeometry x="-1" relative="1" as="geometry">
            <mxPoint x="1" y="-59" as="offset" />
          </mxGeometry>
        </mxCell>
        <mxCell id="qnkbcpYswVgYUXXukxZf-54" value="STARRING" style="shape=rhombus;perimeter=rhombusPerimeter;whiteSpace=wrap;html=1;align=center;shadow=0;sketch=0;fillStyle=solid;strokeColor=#330000;strokeWidth=1;fillColor=#FFFFFF;" parent="1" vertex="1">
          <mxGeometry x="-195" y="1463" width="120" height="60" as="geometry" />
        </mxCell>
        <mxCell id="qnkbcpYswVgYUXXukxZf-55" value="" style="endArrow=none;html=1;rounded=0;" parent="1" edge="1">
          <mxGeometry relative="1" as="geometry">
            <mxPoint x="-134.59000000000015" y="1605" as="sourcePoint" />
            <mxPoint x="-134.59000000000015" y="1523" as="targetPoint" />
          </mxGeometry>
        </mxCell>
        <mxCell id="qnkbcpYswVgYUXXukxZf-56" value="(1, N)" style="resizable=0;html=1;align=left;verticalAlign=bottom;shadow=0;sketch=0;fillStyle=solid;strokeColor=#330000;strokeWidth=1;fillColor=#FFFFFF;" parent="qnkbcpYswVgYUXXukxZf-55" connectable="0" vertex="1">
          <mxGeometry x="-1" relative="1" as="geometry">
            <mxPoint x="1" y="-2" as="offset" />
          </mxGeometry>
        </mxCell>
        <mxCell id="qnkbcpYswVgYUXXukxZf-57" value="CHARACTER" style="whiteSpace=wrap;html=1;align=center;shadow=0;sketch=0;fillStyle=solid;strokeColor=#330000;strokeWidth=1;fillColor=#FFFFFF;" parent="1" vertex="1">
          <mxGeometry x="-184" y="1606" width="100" height="40" as="geometry" />
        </mxCell>
        <mxCell id="qnkbcpYswVgYUXXukxZf-58" value="firstName" style="text;html=1;align=center;verticalAlign=middle;resizable=0;points=[];autosize=1;strokeColor=none;fillColor=none;" parent="1" vertex="1">
          <mxGeometry x="-80.5" y="1520" width="70" height="30" as="geometry" />
        </mxCell>
        <mxCell id="qnkbcpYswVgYUXXukxZf-59" value="" style="edgeStyle=none;rounded=0;orthogonalLoop=1;jettySize=auto;html=1;exitX=0.75;exitY=0;exitDx=0;exitDy=0;endArrow=none;" parent="1" edge="1">
          <mxGeometry relative="1" as="geometry">
            <mxPoint x="-82.83045479853718" y="1555.9654575824497" as="targetPoint" />
            <mxPoint x="-87" y="1606" as="sourcePoint" />
          </mxGeometry>
        </mxCell>
        <mxCell id="qnkbcpYswVgYUXXukxZf-60" value="" style="ellipse;whiteSpace=wrap;html=1;fillColor=#FFFFFF;strokeColor=#330000;shadow=0;sketch=0;fillStyle=solid;strokeWidth=1;" parent="1" vertex="1">
          <mxGeometry x="-18" y="1578" width="20" height="20" as="geometry" />
        </mxCell>
        <mxCell id="qnkbcpYswVgYUXXukxZf-61" value="" style="ellipse;whiteSpace=wrap;html=1;fillColor=#FFFFFF;strokeColor=#330000;shadow=0;sketch=0;fillStyle=solid;strokeWidth=1;" parent="1" vertex="1">
          <mxGeometry x="-93" y="1536" width="20" height="20" as="geometry" />
        </mxCell>
        <mxCell id="qnkbcpYswVgYUXXukxZf-62" value="lastName" style="text;html=1;align=center;verticalAlign=middle;resizable=0;points=[];autosize=1;strokeColor=none;fillColor=none;" parent="1" vertex="1">
          <mxGeometry x="-8" y="1559" width="70" height="30" as="geometry" />
        </mxCell>
        <mxCell id="qnkbcpYswVgYUXXukxZf-63" value="" style="edgeStyle=none;rounded=0;orthogonalLoop=1;jettySize=auto;html=1;exitX=0.75;exitY=0;exitDx=0;exitDy=0;endArrow=none;" parent="1" edge="1">
          <mxGeometry relative="1" as="geometry">
            <mxPoint x="-18" y="1590" as="targetPoint" />
            <mxPoint x="-84" y="1616" as="sourcePoint" />
          </mxGeometry>
        </mxCell>
        <mxCell id="qnkbcpYswVgYUXXukxZf-64" value="" style="endArrow=none;html=1;rounded=0;" parent="1" edge="1">
          <mxGeometry width="50" height="50" relative="1" as="geometry">
            <mxPoint x="-164" y="1606" as="sourcePoint" />
            <mxPoint x="-208" y="1555" as="targetPoint" />
          </mxGeometry>
        </mxCell>
        <mxCell id="qnkbcpYswVgYUXXukxZf-65" value="" style="ellipse;whiteSpace=wrap;html=1;fillColor=#000000;strokeColor=#330000;shadow=0;sketch=0;fillStyle=solid;strokeWidth=1;" parent="1" vertex="1">
          <mxGeometry x="-223" y="1536" width="20" height="20" as="geometry" />
        </mxCell>
        <mxCell id="qnkbcpYswVgYUXXukxZf-66" value="pseudonym" style="text;html=1;align=center;verticalAlign=middle;resizable=0;points=[];autosize=1;strokeColor=none;fillColor=none;flipV=1;" parent="1" vertex="1">
          <mxGeometry x="-302" y="1521" width="90" height="30" as="geometry" />
        </mxCell>
        <mxCell id="qnkbcpYswVgYUXXukxZf-67" value="" style="endArrow=none;html=1;rounded=0;" parent="1" edge="1">
          <mxGeometry width="50" height="50" relative="1" as="geometry">
            <mxPoint x="-162" y="1476" as="sourcePoint" />
            <mxPoint x="-198" y="1430" as="targetPoint" />
          </mxGeometry>
        </mxCell>
        <mxCell id="qnkbcpYswVgYUXXukxZf-68" value="" style="endArrow=none;html=1;rounded=0;" parent="1" edge="1">
          <mxGeometry width="50" height="50" relative="1" as="geometry">
            <mxPoint x="-73" y="1430" as="sourcePoint" />
            <mxPoint x="-109" y="1476" as="targetPoint" />
          </mxGeometry>
        </mxCell>
        <mxCell id="qnkbcpYswVgYUXXukxZf-69" value="" style="ellipse;whiteSpace=wrap;html=1;fillColor=#FFFFFF;strokeColor=#330000;shadow=0;sketch=0;fillStyle=solid;strokeWidth=1;" parent="1" vertex="1">
          <mxGeometry x="-81" y="1413" width="20" height="20" as="geometry" />
        </mxCell>
        <mxCell id="qnkbcpYswVgYUXXukxZf-70" value="" style="ellipse;whiteSpace=wrap;html=1;fillColor=#FFFFFF;strokeColor=#330000;shadow=0;sketch=0;fillStyle=solid;strokeWidth=1;" parent="1" vertex="1">
          <mxGeometry x="-208" y="1413" width="20" height="20" as="geometry" />
        </mxCell>
        <mxCell id="qnkbcpYswVgYUXXukxZf-71" value="city" style="text;html=1;align=center;verticalAlign=middle;resizable=0;points=[];autosize=1;strokeColor=none;fillColor=none;" parent="1" vertex="1">
          <mxGeometry x="-241.5" y="1400" width="40" height="30" as="geometry" />
        </mxCell>
        <mxCell id="qnkbcpYswVgYUXXukxZf-72" value="state" style="text;html=1;align=center;verticalAlign=middle;resizable=0;points=[];autosize=1;strokeColor=none;fillColor=none;" parent="1" vertex="1">
          <mxGeometry x="-71.5" y="1400" width="50" height="30" as="geometry" />
        </mxCell>
        <mxCell id="qnkbcpYswVgYUXXukxZf-76" value="" style="endArrow=none;html=1;rounded=0;entryX=1;entryY=0.5;entryDx=0;entryDy=0;" parent="1" target="qnkbcpYswVgYUXXukxZf-77" edge="1">
          <mxGeometry width="50" height="50" relative="1" as="geometry">
            <mxPoint x="-194" y="1493" as="sourcePoint" />
            <mxPoint x="-238" y="1544" as="targetPoint" />
          </mxGeometry>
        </mxCell>
        <mxCell id="qnkbcpYswVgYUXXukxZf-77" value="" style="ellipse;whiteSpace=wrap;html=1;fillColor=#FFFFFF;strokeColor=#330000;shadow=0;sketch=0;fillStyle=solid;strokeWidth=1;flipV=1;flipH=0;direction=west;" parent="1" vertex="1">
          <mxGeometry x="-278.5" y="1466" width="20" height="20" as="geometry" />
        </mxCell>
        <mxCell id="qnkbcpYswVgYUXXukxZf-78" value="role" style="text;html=1;align=center;verticalAlign=middle;resizable=0;points=[];autosize=1;strokeColor=none;fillColor=none;flipV=1;" parent="1" vertex="1">
          <mxGeometry x="-300" y="1442" width="40" height="30" as="geometry" />
        </mxCell>
        <mxCell id="qnkbcpYswVgYUXXukxZf-79" value="" style="endArrow=none;html=1;rounded=0;exitX=0;exitY=1;exitDx=0;exitDy=0;" parent="1" source="qnkbcpYswVgYUXXukxZf-80" edge="1">
          <mxGeometry width="50" height="50" relative="1" as="geometry">
            <mxPoint x="-60.500000000000455" y="1291" as="sourcePoint" />
            <mxPoint x="-84.50000000000045" y="1340" as="targetPoint" />
          </mxGeometry>
        </mxCell>
        <mxCell id="qnkbcpYswVgYUXXukxZf-80" value="" style="ellipse;whiteSpace=wrap;html=1;aspect=fixed;shadow=0;sketch=0;fillStyle=solid;strokeColor=#330000;strokeWidth=1;fillColor=#FFFFFF;" parent="1" vertex="1">
          <mxGeometry x="-44" y="1285" width="20" height="20" as="geometry" />
        </mxCell>
        <mxCell id="qnkbcpYswVgYUXXukxZf-81" value="" style="endArrow=none;html=1;rounded=0;exitX=0.5;exitY=1;exitDx=0;exitDy=0;entryX=0.25;entryY=0;entryDx=0;entryDy=0;" parent="1" source="qnkbcpYswVgYUXXukxZf-82" target="qnkbcpYswVgYUXXukxZf-24" edge="1">
          <mxGeometry width="50" height="50" relative="1" as="geometry">
            <mxPoint x="-201.50000000000045" y="1291" as="sourcePoint" />
            <mxPoint x="-177.50000000000045" y="1340" as="targetPoint" />
          </mxGeometry>
        </mxCell>
        <mxCell id="qnkbcpYswVgYUXXukxZf-82" value="" style="ellipse;whiteSpace=wrap;html=1;aspect=fixed;shadow=0;sketch=0;fillStyle=solid;strokeColor=#330000;strokeWidth=1;fillColor=#FFFFFF;flipV=0;flipH=1;perimeterSpacing=0;" parent="1" vertex="1">
          <mxGeometry x="-184" y="1254" width="20" height="20" as="geometry" />
        </mxCell>
        <mxCell id="qnkbcpYswVgYUXXukxZf-83" value="issueNumber" style="text;html=1;align=center;verticalAlign=middle;resizable=0;points=[];autosize=1;strokeColor=none;fillColor=none;flipV=0;flipH=1;" parent="1" vertex="1">
          <mxGeometry x="-223" y="1227" width="90" height="30" as="geometry" />
        </mxCell>
        <mxCell id="qnkbcpYswVgYUXXukxZf-84" value="" style="endArrow=none;html=1;rounded=0;exitX=0.5;exitY=1;exitDx=0;exitDy=0;" parent="1" source="qnkbcpYswVgYUXXukxZf-85" edge="1">
          <mxGeometry width="50" height="50" relative="1" as="geometry">
            <mxPoint x="-127" y="1284" as="sourcePoint" />
            <mxPoint x="-120" y="1340" as="targetPoint" />
          </mxGeometry>
        </mxCell>
        <mxCell id="qnkbcpYswVgYUXXukxZf-85" value="" style="ellipse;whiteSpace=wrap;html=1;aspect=fixed;shadow=0;sketch=0;fillStyle=solid;strokeColor=#330000;strokeWidth=1;fillColor=#FFFFFF;" parent="1" vertex="1">
          <mxGeometry x="-116" y="1265" width="20" height="20" as="geometry" />
        </mxCell>
        <mxCell id="qnkbcpYswVgYUXXukxZf-86" value="series" style="text;html=1;align=center;verticalAlign=middle;resizable=0;points=[];autosize=1;strokeColor=none;fillColor=none;" parent="1" vertex="1">
          <mxGeometry x="-131.5" y="1235" width="60" height="30" as="geometry" />
        </mxCell>
        <mxCell id="qnkbcpYswVgYUXXukxZf-91" value="coverTitle" style="text;html=1;align=center;verticalAlign=middle;resizable=0;points=[];autosize=1;strokeColor=none;fillColor=none;" parent="1" vertex="1">
          <mxGeometry x="-80" y="1254" width="80" height="30" as="geometry" />
        </mxCell>
        <mxCell id="qnkbcpYswVgYUXXukxZf-92" value="I further simplify the conceptual schema by adding IDs to&lt;br&gt;the entities with more than one identifier. In this way I avoid&lt;br&gt;having relationships with too many attributes (like the&lt;br&gt;AUTHORING relationships, where I need to put identifiers&lt;br&gt;for three entities, each of them with a composite identifier" style="text;html=1;align=center;verticalAlign=middle;resizable=0;points=[];autosize=1;strokeColor=none;fillColor=none;fontSize=14;" parent="1" vertex="1">
          <mxGeometry x="-825" y="1150" width="390" height="100" as="geometry" />
        </mxCell>
        <mxCell id="qnkbcpYswVgYUXXukxZf-93" value="&lt;p style=&quot;line-height: 140%;&quot;&gt;CHARACTER(firstName, lastName, &lt;u&gt;pseudonym&lt;/u&gt;)&lt;br&gt;COMIC BOOK(&lt;u&gt;cbID&lt;/u&gt;,&amp;nbsp;series, issueNumber,&amp;nbsp;coverTitle)&lt;br&gt;STARRING(&lt;u&gt;comicBook&lt;/u&gt;,&amp;nbsp;&lt;u&gt;character&lt;/u&gt;, role, city, state)&lt;br&gt;EDITOR(&lt;u&gt;name&lt;/u&gt;, city)&lt;br&gt;PUBLISHING(&lt;u&gt;editor&lt;/u&gt;, &lt;u&gt;comic_book&lt;/u&gt;)&lt;br&gt;WRITER(&lt;u&gt;writerID&lt;/u&gt;,&amp;nbsp;&lt;span style=&quot;border-color: var(--border-color);&quot;&gt;firstName&lt;/span&gt;,&amp;nbsp;&lt;span style=&quot;border-color: var(--border-color);&quot;&gt;lastName&lt;/span&gt;, pseudonym)&lt;br&gt;ARTIST(&lt;u&gt;artistID&lt;/u&gt;,&amp;nbsp;&lt;span style=&quot;border-color: var(--border-color);&quot;&gt;firstName&lt;/span&gt;,&amp;nbsp;&lt;span style=&quot;border-color: var(--border-color);&quot;&gt;lastName&lt;/span&gt;, pseudonym)&lt;br&gt;AUTHORING(&lt;u&gt;writer&lt;/u&gt;,&amp;nbsp;&lt;u&gt;artist&lt;/u&gt;, &lt;u&gt;comicBook&lt;/u&gt;)&lt;/p&gt;" style="text;html=1;align=center;verticalAlign=middle;resizable=0;points=[];autosize=1;strokeColor=none;fillColor=none;fontSize=14;" parent="1" vertex="1">
          <mxGeometry x="-162" y="1840" width="360" height="200" as="geometry" />
        </mxCell>
        <mxCell id="qnkbcpYswVgYUXXukxZf-94" value="&lt;b&gt;RELATIONAL SCHEMA&lt;/b&gt;" style="text;html=1;align=center;verticalAlign=middle;resizable=0;points=[];autosize=1;strokeColor=none;fillColor=none;fontSize=14;" parent="1" vertex="1">
          <mxGeometry x="-77" y="1828" width="180" height="30" as="geometry" />
        </mxCell>
        <mxCell id="qnkbcpYswVgYUXXukxZf-95" style="edgeStyle=none;rounded=0;orthogonalLoop=1;jettySize=auto;html=1;exitX=0;exitY=0.25;exitDx=0;exitDy=0;" parent="1" edge="1">
          <mxGeometry relative="1" as="geometry">
            <mxPoint x="-43.5" y="1178" as="targetPoint" />
            <mxPoint x="-1" y="1238" as="sourcePoint" />
          </mxGeometry>
        </mxCell>
        <mxCell id="qnkbcpYswVgYUXXukxZf-96" value="ID" style="text;html=1;align=center;verticalAlign=middle;resizable=0;points=[];autosize=1;strokeColor=none;fillColor=none;" parent="1" vertex="1">
          <mxGeometry x="-88.5" y="1144" width="40" height="30" as="geometry" />
        </mxCell>
        <mxCell id="qnkbcpYswVgYUXXukxZf-97" value="" style="ellipse;whiteSpace=wrap;html=1;fillColor=#000000;strokeColor=#330000;shadow=0;sketch=0;fillStyle=solid;strokeWidth=1;" parent="1" vertex="1">
          <mxGeometry x="-53.5" y="1168" width="20" height="20" as="geometry" />
        </mxCell>
        <mxCell id="qnkbcpYswVgYUXXukxZf-98" style="edgeStyle=none;rounded=0;orthogonalLoop=1;jettySize=auto;html=1;exitX=1;exitY=0.5;exitDx=0;exitDy=0;entryX=0;entryY=1;entryDx=0;entryDy=0;" parent="1" source="qnkbcpYswVgYUXXukxZf-27" edge="1">
          <mxGeometry relative="1" as="geometry">
            <mxPoint x="361.9289321881347" y="1337.0710678118653" as="targetPoint" />
            <mxPoint x="332" y="1364" as="sourcePoint" />
          </mxGeometry>
        </mxCell>
        <mxCell id="qnkbcpYswVgYUXXukxZf-99" value="lastName" style="text;html=1;align=center;verticalAlign=middle;resizable=0;points=[];autosize=1;strokeColor=none;fillColor=none;" parent="1" vertex="1">
          <mxGeometry x="357" y="1303" width="70" height="30" as="geometry" />
        </mxCell>
        <mxCell id="qnkbcpYswVgYUXXukxZf-105" value="" style="ellipse;whiteSpace=wrap;html=1;fillColor=#FFFFFF;strokeColor=#330000;shadow=0;sketch=0;fillStyle=solid;strokeWidth=1;" parent="1" vertex="1">
          <mxGeometry x="347" y="1328" width="20" height="20" as="geometry" />
        </mxCell>
        <mxCell id="qnkbcpYswVgYUXXukxZf-108" style="edgeStyle=none;rounded=0;orthogonalLoop=1;jettySize=auto;html=1;exitX=0;exitY=0;exitDx=0;exitDy=0;entryX=1;entryY=1;entryDx=0;entryDy=0;" parent="1" source="qnkbcpYswVgYUXXukxZf-24" edge="1">
          <mxGeometry relative="1" as="geometry">
            <mxPoint x="-241.4289321881347" y="1295.0710678118653" as="targetPoint" />
            <mxPoint x="-208" y="1344" as="sourcePoint" />
          </mxGeometry>
        </mxCell>
        <mxCell id="qnkbcpYswVgYUXXukxZf-109" value="ID" style="text;html=1;align=center;verticalAlign=middle;resizable=0;points=[];autosize=1;strokeColor=none;fillColor=none;" parent="1" vertex="1">
          <mxGeometry x="-271.5" y="1263" width="40" height="30" as="geometry" />
        </mxCell>
        <mxCell id="qnkbcpYswVgYUXXukxZf-111" value="" style="ellipse;whiteSpace=wrap;html=1;fillColor=#000000;strokeColor=#330000;shadow=0;sketch=0;fillStyle=solid;strokeWidth=1;" parent="1" vertex="1">
          <mxGeometry x="-246.5" y="1288" width="20" height="20" as="geometry" />
        </mxCell>
      </root>
    </mxGraphModel>
  </diagram>
</mxfile>
